<svg version="1.1" id="Layer_1" xmlns="http://www.w3.org/2000/svg" x="0" y="0" viewBox="0 0 256 256" style="enable-background:new 0 0 256 256" xml:space="preserve"><style>.st2{fill:#69ebfc}.st5{fill:#d476e2}</style><path style="fill:#edd4c2" d="M5 56h246v200H5z"/><path style="fill:#cfb6a4" d="M5 250h246v6H5z"/><path style="fill:#ffefe4" d="M167 246H5V56h246v106z"/><path class="st5" d="M84.487 213.658c-5.6 0-10.969-.734-16.1-2.2-5.134-1.466-9.834-3.7-14.1-6.7-4.269-3-8.034-6.766-11.3-11.3a44.367 44.367 0 0 1-1.23-1.795c-4.419-6.797-1.361-15.961 6.171-18.961l.583-.232c5.812-2.316 12.323-.035 15.722 5.218 1.331 2.057 2.882 3.814 4.654 5.271 4.131 3.4 9.331 5.1 15.6 5.1 2.8 0 5.465-.431 8-1.3 2.531-.865 4.731-2.1 6.6-3.7 1.866-1.6 3.366-3.5 4.5-5.7 1.131-2.2 1.7-4.7 1.7-7.5 0-5.866-2.169-10.465-6.5-13.8-4.334-3.332-10.3-5-17.9-5h-1c-5.965 0-10.8-4.835-10.8-10.8v-2.2c0-5.965 4.835-10.8 10.8-10.8 2.666 0 5.266-.331 7.8-1 2.531-.666 4.766-1.7 6.7-3.1 1.931-1.4 3.465-3.2 4.6-5.4 1.131-2.2 1.7-4.766 1.7-7.7 0-4.531-1.6-8.231-4.8-11.1-3.2-2.866-7.535-4.3-13-4.3-5.869 0-10.369 1.568-13.5 4.7-.76.76-1.462 1.541-2.108 2.343-3.547 4.407-9.49 6.075-14.727 3.937-7.921-3.234-10.399-13.256-4.894-19.806 2.157-2.567 4.174-4.457 5.73-5.673 3.666-2.866 7.965-5.2 12.9-7 4.931-1.8 10.6-2.7 17-2.7 6.531 0 12.5.935 17.9 2.8 5.4 1.869 10.031 4.435 13.9 7.7 3.866 3.269 6.866 7.134 9 11.6 2.131 4.469 3.2 9.3 3.2 14.5 0 4-.5 7.6-1.5 10.8-1 3.2-2.3 6.069-3.9 8.6-1.6 2.534-3.435 4.7-5.5 6.5-2.069 1.8-4.169 3.234-6.3 4.3v1.6c6.4 2.535 11.7 6.6 15.9 12.2 4.2 5.6 6.3 12.668 6.3 21.2 0 6-1.134 11.5-3.4 16.5-2.269 5-5.5 9.369-9.7 13.1-4.2 3.734-9.234 6.634-15.1 8.7-5.87 2.063-12.402 3.098-19.601 3.098zM180.087 198.129v-93.672l-12.944 5.456c-6.233 2.627-13.419-.259-16.104-6.467-2.647-6.12.053-13.236 6.093-16.061l27.291-12.763a10.245 10.245 0 0 1 4.342-.965h7.271c5.661 0 10.251 4.589 10.251 10.251v114.221c0 6.809-5.52 12.328-12.328 12.328h-1.544c-6.809.001-12.328-5.519-12.328-12.328z"/><path class="st2" d="M167 246v-84h84z"/><path d="M256 56H0V16C0 7.163 7.163 0 16 0h224c8.837 0 16 7.163 16 16v40z" style="fill:#6770e6"/><path d="M240 0H16C7.163 0 0 7.163 0 16v6C0 13.163 7.163 6 16 6h224c8.837 0 16 7.163 16 16v-6c0-8.837-7.163-16-16-16z" style="fill:#858eff"/><circle class="st2" cx="40" cy="28" r="10"/><circle class="st2" cx="216" cy="28" r="10"/></svg>